<svg width="2000" height="2000" viewBox="0 0 2000 2000" fill="none" xmlns="http://www.w3.org/2000/svg">
<rect width="2000" height="2000" rx="291" fill="black"/>
<path d="M1122.85 1378.46V978.363C1122.85 949.587 1118.15 924.962 1108.74 904.486C1099.33 883.458 1084.67 867.133 1064.75 855.512C1045.38 843.891 1020.2 838.08 989.209 838.08C962.646 838.08 939.681 842.784 920.312 852.191C900.944 861.046 886.003 874.05 875.488 891.205C864.974 907.807 859.717 927.452 859.717 950.141H620.654C620.654 911.957 629.508 875.71 647.217 841.4C664.925 807.09 690.658 776.931 724.414 750.922C758.171 724.359 798.291 703.607 844.775 688.666C891.813 673.725 944.385 666.254 1002.49 666.254C1072.22 666.254 1134.2 677.875 1188.43 701.117C1242.66 724.359 1285.27 759.223 1316.26 805.707C1347.8 852.191 1363.57 910.297 1363.57 980.023V1364.35C1363.57 1413.6 1366.62 1454 1372.71 1485.54C1378.79 1516.53 1387.65 1543.65 1399.27 1566.89V1581H1157.71C1146.09 1556.65 1137.24 1526.21 1131.15 1489.69C1125.62 1452.61 1122.85 1415.54 1122.85 1378.46ZM1154.39 1033.98L1156.05 1169.28H1022.41C990.869 1169.28 963.477 1172.88 940.234 1180.07C916.992 1187.27 897.9 1197.5 882.959 1210.79C868.018 1223.51 856.95 1238.45 849.756 1255.61C843.115 1272.76 839.795 1291.58 839.795 1312.05C839.795 1332.53 844.499 1351.07 853.906 1367.67C863.314 1383.72 876.872 1396.45 894.58 1405.85C912.288 1414.71 933.04 1419.13 956.836 1419.13C992.806 1419.13 1024.07 1411.94 1050.63 1397.55C1077.2 1383.16 1097.67 1365.46 1112.06 1344.43C1127 1323.4 1134.75 1303.48 1135.3 1284.66L1198.39 1385.93C1189.53 1408.62 1177.36 1432.14 1161.87 1456.49C1146.92 1480.84 1127.83 1503.8 1104.59 1525.38C1081.35 1546.41 1053.4 1563.85 1020.75 1577.68C988.102 1590.96 949.365 1597.6 904.541 1597.6C847.542 1597.6 795.801 1586.26 749.316 1563.57C703.385 1540.33 666.862 1508.51 639.746 1468.11C613.184 1427.16 599.902 1380.67 599.902 1328.66C599.902 1281.62 608.757 1239.84 626.465 1203.31C644.173 1166.79 670.182 1136.08 704.492 1111.18C739.355 1085.72 782.796 1066.63 834.814 1053.9C886.833 1040.62 947.152 1033.98 1015.77 1033.98H1154.39ZM956.006 306L1119.53 561.664H923.633L696.191 306H956.006Z" fill="white"/>
</svg>
